<svg xmlns="http://www.w3.org/2000/svg" width="16" height="16" viewBox="0 0 16 16">
  <path fill="#FFF" d="M11.8348213,10.8782444 L15.8116218,14.8550449 L14.8550449,15.8116218 L10.8782444,11.8348213 C9.73012056,12.7715656 8.26399756,13.3333333 6.66666667,13.3333333 C2.98476833,13.3333333 0,10.348565 0,6.66666667 C0,2.98476833 2.98476833,0 6.66666667,0 C10.348565,0 13.3333333,2.98476833 13.3333333,6.66666667 C13.3333333,8.26399756 12.7715656,9.73012056 11.8348213,10.8782444 Z M6.66666667,12.2222222 C9.73491528,12.2222222 12.2222222,9.73491528 12.2222222,6.66666667 C12.2222222,3.59841806 9.73491528,1.11111111 6.66666667,1.11111111 C3.59841806,1.11111111 1.11111111,3.59841806 1.11111111,6.66666667 C1.11111111,9.73491528 3.59841806,12.2222222 6.66666667,12.2222222 Z"/>
</svg>
